<mxfile host="app.diagrams.net" modified="2022-11-01T08:34:29.221Z" agent="5.0 (Macintosh)" etag="cUrXLaQRqTL0jN73b97S" version="20.5.1" type="github">
  <diagram id="LMwuPY2iV8CUSOwi6vbU" name="Page-1">
    <mxGraphModel dx="946" dy="612" grid="1" gridSize="10" guides="1" tooltips="1" connect="1" arrows="1" fold="1" page="1" pageScale="1" pageWidth="850" pageHeight="1100" math="0" shadow="0">
      <root>
        <mxCell id="0" />
        <mxCell id="1" parent="0" />
        <mxCell id="fwDDHEDy0muOu9YzreqG-1" value="付卖款流程" style="swimlane;" vertex="1" parent="1">
          <mxGeometry x="40" y="30" width="170" height="580" as="geometry" />
        </mxCell>
        <mxCell id="fwDDHEDy0muOu9YzreqG-6" style="edgeStyle=orthogonalEdgeStyle;rounded=0;orthogonalLoop=1;jettySize=auto;html=1;" edge="1" parent="fwDDHEDy0muOu9YzreqG-1" source="fwDDHEDy0muOu9YzreqG-2" target="fwDDHEDy0muOu9YzreqG-3">
          <mxGeometry relative="1" as="geometry" />
        </mxCell>
        <mxCell id="fwDDHEDy0muOu9YzreqG-2" value="开始" style="ellipse;whiteSpace=wrap;html=1;" vertex="1" parent="fwDDHEDy0muOu9YzreqG-1">
          <mxGeometry x="21" y="40" width="120" height="80" as="geometry" />
        </mxCell>
        <mxCell id="fwDDHEDy0muOu9YzreqG-7" style="edgeStyle=orthogonalEdgeStyle;rounded=0;orthogonalLoop=1;jettySize=auto;html=1;" edge="1" parent="fwDDHEDy0muOu9YzreqG-1" source="fwDDHEDy0muOu9YzreqG-3" target="fwDDHEDy0muOu9YzreqG-4">
          <mxGeometry relative="1" as="geometry" />
        </mxCell>
        <mxCell id="fwDDHEDy0muOu9YzreqG-3" value="申请付款" style="whiteSpace=wrap;html=1;" vertex="1" parent="fwDDHEDy0muOu9YzreqG-1">
          <mxGeometry x="21" y="160" width="120" height="60" as="geometry" />
        </mxCell>
        <mxCell id="fwDDHEDy0muOu9YzreqG-8" style="edgeStyle=orthogonalEdgeStyle;rounded=0;orthogonalLoop=1;jettySize=auto;html=1;" edge="1" parent="fwDDHEDy0muOu9YzreqG-1" source="fwDDHEDy0muOu9YzreqG-4" target="fwDDHEDy0muOu9YzreqG-5">
          <mxGeometry relative="1" as="geometry" />
        </mxCell>
        <mxCell id="fwDDHEDy0muOu9YzreqG-4" value="财务支付" style="whiteSpace=wrap;html=1;" vertex="1" parent="fwDDHEDy0muOu9YzreqG-1">
          <mxGeometry x="21" y="270" width="120" height="60" as="geometry" />
        </mxCell>
        <mxCell id="fwDDHEDy0muOu9YzreqG-10" value="" style="edgeStyle=orthogonalEdgeStyle;rounded=0;orthogonalLoop=1;jettySize=auto;html=1;" edge="1" parent="fwDDHEDy0muOu9YzreqG-1" source="fwDDHEDy0muOu9YzreqG-5" target="fwDDHEDy0muOu9YzreqG-9">
          <mxGeometry relative="1" as="geometry" />
        </mxCell>
        <mxCell id="fwDDHEDy0muOu9YzreqG-5" value="财务支付" style="whiteSpace=wrap;html=1;" vertex="1" parent="fwDDHEDy0muOu9YzreqG-1">
          <mxGeometry x="21" y="370" width="120" height="60" as="geometry" />
        </mxCell>
        <mxCell id="fwDDHEDy0muOu9YzreqG-9" value="结束" style="ellipse;whiteSpace=wrap;html=1;" vertex="1" parent="fwDDHEDy0muOu9YzreqG-1">
          <mxGeometry x="21" y="470" width="120" height="60" as="geometry" />
        </mxCell>
      </root>
    </mxGraphModel>
  </diagram>
</mxfile>
